<svg width="423" height="331" viewBox="0 0 423 331" fill="none" xmlns="http://www.w3.org/2000/svg">
<circle cx="226.5" cy="165.5" r="165.5" fill="#51EDD6"/>
<path fill-rule="evenodd" clip-rule="evenodd" d="M382.198 106.258C350.62 158.745 292.044 194 225 194C159.288 194 101.709 160.131 69.7145 109.364C64.064 126.042 61 143.913 61 162.5C61 253.903 135.097 328 226.5 328C317.903 328 392 253.903 392 162.5C392 142.754 388.542 123.816 382.198 106.258Z" fill="#01507E" fill-opacity="0.09"/>
<path fill-rule="evenodd" clip-rule="evenodd" d="M377.997 98.7716C359.138 168.167 298.004 219 225.5 219C153.979 219 93.522 169.537 73.7934 101.584C65.5528 121.25 61 142.843 61 165.5C61 256.903 135.097 331 226.5 331C317.903 331 392 256.903 392 165.5C392 141.758 387.001 119.183 377.997 98.7716Z" fill="#01507C" fill-opacity="0.12"/>
<circle cx="226.5" cy="165.5" r="154.5" stroke="#01507E" stroke-width="22"/>
<circle cx="303" cy="122" r="30" fill="#01507C"/>
<path d="M321.708 122.799C323.798 120.821 324.216 115.183 322.828 112.447C321.44 109.71 320.525 108.289 318.132 106.327C316.184 104.73 314.271 104 310.931 104C306 104 302 109.5 302 115C302 121.075 307.175 126 313.558 126C316.738 126 319.618 124.778 321.708 122.799Z" fill="white"/>
<circle cx="149" cy="122" r="30" fill="#01507C"/>
<path d="M167.708 122.799C169.798 120.821 170.216 115.183 168.828 112.447C167.44 109.71 166.525 108.289 164.132 106.327C162.184 104.73 160.271 104 156.931 104C152 104 148 109.5 148 115C148 121.075 153.175 126 159.558 126C162.738 126 165.618 124.778 167.708 122.799Z" fill="white"/>
<path d="M191 142.439C191 132.808 199.059 125 209 125H243C252.941 125 261 132.808 261 142.439C261 197.854 191 197.854 191 142.439Z" fill="#01507C"/>
<path d="M205 134C205 125 205 125 214 125H238C247 125 247 125 247 134C247 138.971 242.971 143 238 143H214C209.029 143 205 138.971 205 134Z" fill="white"/>
<path d="M207 162C207 157.582 210.582 154 215 154H237C241.418 154 245 157.582 245 162C245 166 238 173 229 173H223.5C217 173 207 167.5 207 162Z" fill="#FFAB7A"/>
<circle cx="124" cy="171" r="12" fill="#FFAB7A"/>
<circle cx="327" cy="171" r="12" fill="#FFAB7A"/>
<path fill-rule="evenodd" clip-rule="evenodd" d="M235.172 33.2819C215.409 31.9954 195.608 35.122 177.204 42.435C158.799 49.748 142.252 61.0641 128.762 75.5634C116.44 88.8068 106.95 104.403 100.851 121.395C99.8885 124.075 97.0141 125.597 94.2898 124.768C91.5381 123.93 89.9819 121.014 90.935 118.3C97.022 100.968 107.385 82.3904 120.708 68.0705C135.31 52.3766 153.221 40.1279 173.142 32.2124C193.063 24.2968 214.496 20.9127 235.886 22.3051C255.451 23.5787 274.502 28.8192 292.019 37.7704C294.727 39.154 295.657 42.527 294.15 45.1679C292.662 47.7743 289.358 48.6862 286.68 47.3334C270.648 39.2375 253.131 34.4509 235.172 33.2819Z" fill="white"/>
<path d="M401.5 63V85" stroke="#4FEED6" stroke-width="10" stroke-linecap="round"/>
<path d="M413 74L391 74" stroke="#4FEED6" stroke-width="10" stroke-linecap="round"/>
<circle cx="418" cy="57" r="5" fill="#4FEED6"/>
<path d="M4 165H20" stroke="#4FEED6" stroke-width="8" stroke-linecap="round"/>
<path d="M12 157L12 173" stroke="#4FEED6" stroke-width="8" stroke-linecap="round"/>
<circle cx="25" cy="146" r="5" fill="#4FEED6"/>
<circle cx="39" cy="168" r="5" fill="#4FEED6"/>
</svg>
