<svg width="331" height="331" viewBox="0 0 331 331" fill="none" xmlns="http://www.w3.org/2000/svg">
<circle cx="165.5" cy="165.5" r="165.5" fill="#51EDD6"/>
<path fill-rule="evenodd" clip-rule="evenodd" d="M321.198 106.258C289.62 158.745 231.044 194 164 194C98.2877 194 40.7093 160.131 8.7145 109.364C3.06402 126.042 0 143.913 0 162.5C0 253.903 74.0969 328 165.5 328C256.903 328 331 253.903 331 162.5C331 142.754 327.542 123.816 321.198 106.258Z" fill="#01507E" fill-opacity="0.09"/>
<path fill-rule="evenodd" clip-rule="evenodd" d="M316.997 98.7716C298.138 168.167 237.004 219 164.5 219C92.9789 219 32.522 169.537 12.7934 101.584C4.5528 121.25 0 142.843 0 165.5C0 256.903 74.0969 331 165.5 331C256.903 331 331 256.903 331 165.5C331 141.758 326.001 119.183 316.997 98.7716Z" fill="#01507C" fill-opacity="0.12"/>
<circle cx="165.5" cy="165.5" r="154.5" stroke="#01507E" stroke-width="22"/>
<circle cx="242" cy="122" r="30" fill="#01507C"/>
<path d="M260.708 122.799C262.798 120.821 263.216 115.183 261.828 112.447C260.44 109.71 259.525 108.289 257.132 106.327C255.184 104.73 253.271 104 249.931 104C245 104 241 109.5 241 115C241 121.075 246.175 126 252.558 126C255.738 126 258.618 124.778 260.708 122.799Z" fill="white"/>
<circle cx="88" cy="122" r="30" fill="#01507C"/>
<path d="M106.708 122.799C108.798 120.821 109.216 115.183 107.828 112.447C106.44 109.71 105.525 108.289 103.132 106.327C101.184 104.73 99.2705 104 95.9309 104C91 104 87 109.5 87 115C87 121.075 92.1745 126 98.5577 126C101.738 126 104.618 124.778 106.708 122.799Z" fill="white"/>
<path d="M130 142.439C130 132.808 138.059 125 148 125H182C191.941 125 200 132.808 200 142.439C200 197.854 130 197.854 130 142.439Z" fill="#01507C"/>
<path d="M144 134C144 125 144 125 153 125H177C186 125 186 125 186 134C186 138.971 181.971 143 177 143H153C148.029 143 144 138.971 144 134Z" fill="white"/>
<path d="M146 162C146 157.582 149.582 154 154 154H176C180.418 154 184 157.582 184 162C184 166 177 173 168 173H162.5C156 173 146 167.5 146 162Z" fill="#FFAB7A"/>
<circle cx="63" cy="171" r="12" fill="#FFAB7A"/>
<circle cx="266" cy="171" r="12" fill="#FFAB7A"/>
<path fill-rule="evenodd" clip-rule="evenodd" d="M174.172 33.2819C154.409 31.9954 134.608 35.122 116.204 42.435C97.7989 49.748 81.2518 61.0641 67.7616 75.5634C55.4398 88.8068 45.9503 104.403 39.8507 121.395C38.8885 124.075 36.0141 125.597 33.2898 124.768C30.5381 123.93 28.9819 121.014 29.935 118.3C36.022 100.968 46.3849 82.3904 59.7083 68.0705C74.31 52.3766 92.2205 40.1279 112.142 32.2124C132.063 24.2968 153.496 20.9127 174.886 22.3051C194.451 23.5787 213.502 28.8192 231.019 37.7704C233.727 39.154 234.657 42.527 233.15 45.1679C231.662 47.7743 228.358 48.6862 225.68 47.3334C209.648 39.2375 192.131 34.4509 174.172 33.2819Z" fill="white"/>
</svg>
