<svg width="512" height="163" viewBox="0 0 512 163" fill="none" xmlns="http://www.w3.org/2000/svg">
<g clip-path="url(#clip0_19_2)">
<path d="M166.969 6.20496C176.874 2.10927 187.49 0.00123791 198.212 0.00123979C208.933 0.00124166 219.549 2.10927 229.455 6.20497C246.581 13.2866 244.768 19.9401 258.458 8.81637C275.311 -4.87703 300.093 -2.33975 313.81 14.4836C316.413 17.6757 320.674 16.2028 322.301 14.2724C336.135 -2.45536 360.934 -4.82055 377.691 8.98953C381.171 11.8574 384.049 18.161 386.52 23.0762C388.494 27.0039 394.13 26.0219 395.784 23.0762C413.325 -8.16612 460.533 -6.54188 475.041 27.8069L508.899 107.972C517.341 127.96 507.953 150.995 487.93 159.423C471.198 166.465 452.335 161.078 441.66 147.454C437.299 141.888 429.236 143.851 426.414 147.454C415.696 161.134 396.735 166.496 379.978 159.352C377.923 158.476 375.981 157.446 374.16 156.281C357.462 167.557 334.604 164.421 321.635 148.516C320.182 146.797 315.755 145.815 313.81 148.516C300.093 165.34 275.311 167.877 258.458 154.184C244.768 143.06 246.581 149.713 229.455 156.795C219.549 160.891 208.933 162.999 198.212 162.999C187.49 162.999 176.874 160.891 166.969 156.795C162.01 154.744 157.278 152.216 152.837 149.252C140.669 141.132 116.079 143.919 105.193 152.689C83.7221 169.985 48.5339 163.996 36.5023 135.139L3.03101 54.8611C-5.31889 34.8347 4.17525 11.843 24.2367 3.50767C41.4057 -3.62588 60.7504 2.28724 71.2057 16.6938C74.4124 21.1124 82.1433 21.6028 85.7049 16.6938C96.3679 1.99678 116.211 -3.78732 133.498 3.86139C152.96 12.4731 146.124 14.8242 166.969 6.20496Z" fill="#01507C"/>
<path fill-rule="evenodd" clip-rule="evenodd" d="M294.378 30.5445C289.502 24.5438 280.684 23.6322 274.684 28.5083C268.683 33.3844 267.772 42.2017 272.648 48.2023L298.33 79.8079C299.226 80.9102 299.226 82.4895 298.33 83.5917L272.648 115.197C267.772 121.198 268.683 130.015 274.684 134.891C280.684 139.767 289.502 138.856 294.378 132.855L315.579 106.765C316.779 105.287 319.035 105.287 320.235 106.765L341.436 132.855C346.313 138.856 355.13 139.767 361.13 134.891C367.131 130.015 368.043 121.198 363.167 115.197L337.546 83.6681C336.645 82.5598 336.651 80.9702 337.559 79.8681L363.596 48.2777C368.514 42.3111 367.664 33.4877 361.697 28.57C355.731 23.6523 346.907 24.5026 341.989 30.4691L320.315 56.7659C319.11 58.2284 316.867 58.2206 315.672 56.7498L294.378 30.5445ZM198.509 53.3734C194.802 53.3734 191.13 54.1048 187.704 55.5265C184.277 56.9481 181.163 59.0325 178.538 61.6618C175.913 64.2911 173.829 67.4138 172.407 70.8522C170.986 74.2906 170.253 77.9767 170.253 81.6998C170.253 85.4229 170.986 89.109 172.407 92.5475C173.829 95.9859 175.913 99.1086 178.538 101.738C181.163 104.367 184.277 106.452 187.704 107.873C191.13 109.295 194.802 110.026 198.509 110.026C202.217 110.026 205.888 109.295 209.315 107.873C212.741 106.452 215.856 104.367 218.481 101.738C221.106 99.1086 223.19 95.9859 224.611 92.5475C226.033 89.109 226.765 85.4229 226.765 81.6998C226.765 77.9767 226.033 74.2906 224.611 70.8522C223.19 67.4138 221.106 64.2911 218.481 61.6618C215.856 59.0325 212.741 56.9481 209.315 55.5265C205.888 54.1048 202.217 53.3734 198.509 53.3734ZM176.974 29.6642C183.801 26.8316 191.119 25.3734 198.509 25.3734C205.9 25.3734 213.218 26.8316 220.045 29.6642C226.872 32.4967 233.074 36.6478 238.297 41.8793C243.519 47.1107 247.661 53.3201 250.486 60.1523C253.312 66.9844 254.765 74.3062 254.765 81.6998C254.765 89.0935 253.312 96.4153 250.486 103.247C247.661 110.08 243.519 116.289 238.297 121.52C233.074 126.752 226.872 130.903 220.045 133.735C213.218 136.568 205.9 138.026 198.509 138.026C191.119 138.026 183.801 136.568 176.974 133.735C170.147 130.903 163.945 126.752 158.722 121.52C153.499 116.289 149.358 110.08 146.533 103.247C143.707 96.4153 142.253 89.0935 142.253 81.6998C142.253 74.3062 143.707 66.9844 146.533 60.1522C149.358 53.3201 153.499 47.1107 158.722 41.8793C163.945 36.6478 170.147 32.4967 176.974 29.6642ZM34.4319 26.9373C41.572 23.9704 49.7653 27.3534 52.7322 34.4936L75.3587 88.9465C76.3704 91.3814 79.8055 91.4205 80.8725 89.0093L105.126 34.2004C108.255 27.1297 116.523 23.9342 123.593 27.063C130.664 30.1918 133.86 38.4601 130.731 45.5308L95.1571 125.922C88.3998 141.193 66.6443 140.945 60.2367 125.524L26.8756 45.2376C23.9087 38.0975 27.2918 29.9041 34.4319 26.9373ZM416.648 114.371C415.446 114.371 414.36 115.088 413.888 116.194L408.419 129.024C405.386 136.137 397.162 139.445 390.05 136.413C382.937 133.38 379.629 125.156 382.662 118.044L416.849 37.8504C423.43 22.4137 445.329 22.4636 451.839 37.9304L485.585 118.103C488.585 125.229 485.24 133.438 478.113 136.438C470.987 139.437 462.778 136.092 459.778 128.965L454.408 116.207C453.94 115.094 452.85 114.371 451.643 114.371H416.648ZM441.78 86.207C442.613 88.1844 441.161 90.3709 439.015 90.3709H429.438C427.286 90.3709 425.834 88.1733 426.678 86.1944L431.497 74.8894C432.536 72.452 435.994 72.4599 437.022 74.9021L441.78 86.207Z" fill="white"/>
<path fill-rule="evenodd" clip-rule="evenodd" d="M455.956 113.434C453.547 111.064 450.303 109.736 446.923 109.736H421.22C417.795 109.736 414.505 111.077 412.056 113.471C410.875 114.626 409.984 116.03 409.098 117.428C408.994 117.592 408.89 117.756 408.786 117.919C405.336 123.32 398.738 125.54 392.934 122.867C388.665 120.901 385.867 116.767 385.17 112.159L382.662 118.044C379.629 125.156 382.937 133.38 390.05 136.413C397.162 139.445 405.386 136.137 408.419 129.024L414.666 114.371H453.635L459.778 128.965C462.778 136.092 470.987 139.437 478.113 136.438C485.24 133.438 488.585 125.229 485.585 118.103L482.892 111.703C482.313 116.515 479.448 120.874 475.011 122.892C469.183 125.542 462.578 123.274 459.158 117.831C459.07 117.691 458.982 117.55 458.894 117.41C458.017 116.006 457.134 114.593 455.956 113.434Z" fill="#4FEED6" fill-opacity="0.4"/>
<path d="M269.611 122.359C269.062 126.967 270.816 131.748 274.684 134.891C280.684 139.767 289.502 138.856 294.378 132.855L315.579 106.765C316.779 105.287 319.035 105.287 320.235 106.765L341.436 132.855C346.313 138.856 355.13 139.767 361.13 134.891C364.341 132.282 366.095 128.544 366.285 124.714C365.639 125.486 364.898 126.206 364.062 126.855C357.771 131.746 348.526 130.832 343.413 124.813L326.45 104.959C321.944 99.6852 313.74 99.8483 309.447 105.298L294.072 124.813C288.959 130.832 279.714 131.746 273.422 126.855C271.787 125.584 270.512 124.045 269.611 122.359Z" fill="#4FEED6" fill-opacity="0.4"/>
<path d="M251.62 100.271C249.096 103.951 246.106 107.366 242.703 110.443C236.901 115.691 230.011 119.855 222.426 122.696C214.841 125.537 206.711 127 198.5 127C190.289 127 182.159 125.537 174.574 122.696C166.989 119.855 160.099 115.691 154.297 110.443C150.911 107.381 147.934 103.986 145.419 100.327C145.762 101.309 146.134 102.283 146.533 103.247C149.358 110.08 153.499 116.289 158.722 121.52C163.945 126.752 170.147 130.903 176.974 133.735C183.801 136.568 191.119 138.026 198.509 138.026C205.9 138.026 213.218 136.568 220.045 133.735C226.872 130.903 233.074 126.752 238.297 121.52C243.519 116.289 247.661 110.08 250.486 103.247C250.893 102.265 251.271 101.272 251.62 100.271Z" fill="#4FEED6" fill-opacity="0.4"/>
<path fill-rule="evenodd" clip-rule="evenodd" d="M55.627 114.431L60.2366 125.524C66.6443 140.945 88.3998 141.193 95.1571 125.922L100.566 113.7C88.9301 127.222 67.5626 127.393 55.627 114.431Z" fill="#4FEED6" fill-opacity="0.4"/>
</g>
<defs>
<clipPath id="clip0_19_2">
<rect width="512" height="163" fill="white"/>
</clipPath>
</defs>
</svg>
